<?xml version="1.0" encoding="UTF-8" standalone="no"?>
<svg
   xmlns:dc="http://purl.org/dc/elements/1.1/"
   xmlns:cc="http://creativecommons.org/ns#"
   xmlns:rdf="http://www.w3.org/1999/02/22-rdf-syntax-ns#"
   xmlns:svg="http://www.w3.org/2000/svg"
   xmlns="http://www.w3.org/2000/svg"
   id="svg28"
   version="1.1"
   style="overflow:visible"
   viewBox="-240 -126 480 252"
   height="1008px"
   width="1920px">
  <metadata
     id="metadata34">
    <rdf:RDF>
      <cc:Work
         rdf:about="">
        <dc:format>image/svg+xml</dc:format>
        <dc:type
           rdf:resource="http://purl.org/dc/dcmitype/StillImage" />
      </cc:Work>
    </rdf:RDF>
  </metadata>
  <defs
     id="defs32" />
  <rect
     id="rect2"
     fill-opacity="0"
     fill="rgb(0,0,0)"
     height="252"
     width="480"
     y="-126"
     x="-240" />
  <svg
     id="svg26"
     version="1.1"
     y="-250"
     x="-250"
     viewBox="-250 -250 500 500"
     height="500"
     width="500"
     style="overflow:visible">
    <g
       style="fill:#ffffff;stroke-linejoin:round"
       id="g24">
      <path
         style="fill:#9b9b9b;fill-opacity:1;stroke:none;stroke-linecap:butt;stroke-linejoin:round"
         id="path4"
         d="m 92.20339,-111.89616 c -2.155035,-0.007 -3.903186,1.77101 -3.625223,4.85593 0.444015,4.92785 10.59203,14.266179 5.905514,44.14791 -1.380215,8.799914 -3.284515,17.030596 -5.439248,24.495267 1.664226,14.654776 5.675288,15.654349 11.156777,8.05541 2.49275,-10.20745 4.32931,-20.653689 5.53107,-31.705539 2.62286,-24.120804 -5.59404,-43.331778 -9.561032,-47.804498 -1.235112,-1.39245 -2.674567,-2.03971 -3.967647,-2.04403 z" />
      <path
         style="fill:#ffffff;fill-opacity:1;stroke:none;stroke-linecap:butt;stroke-linejoin:round"
         id="path6"
         d="m -97.555351,-31.988481 c -2.926819,1.56934 -5.402089,2.307593 -6.870109,3.172027 l 1.56607,3.991565 -2.57631,4.883321 c 1.59355,5.171254 5.33732,10.387077 8.11852,12.426423 4.218454,3.093202 16.314165,0.845272 19.970422,5.625648 1.539639,2.013149 2.169721,5.077896 2.517732,8.651107 8.71804,14.918086 30.406476,33.454037 23.222334,56.611047 4.333794,7.560883 7.222533,15.455761 6.036545,24.615934 -1.864014,9.820324 -6.747704,8.998904 -10.966024,14.060819 -4.218454,5.0616 -1.406739,9.84063 -1.406739,9.84063 h 17.715738 c 10.577089,-14.880101 17.086675,-38.197038 11.575858,-55.676735 33.345699,5.065776 66.244173,-1.439589 73.17405,1.834647 11.912466,30.005548 17.369013,16.78819 16.187334,30.105512 -0.946255,10.665462 -6.671177,9.122653 -11.672674,12.586086 -2.810115,1.94564 -6.796883,5.67665 -3.147165,11.15054 H 63.702784 C 76.397877,103.8115 80.824098,85.545623 77.490111,72.992168 75.069045,63.876751 79.82301,54.122957 84.208402,45.164923 86.499728,40.484504 87.792868,35.378702 88.274203,30.345125 L 49.597381,0.901773 c -1.698397,-0.376494 -3.519577,-0.76508 -5.433278,-1.148943 -16.800451,13.936469 -56.837977,12.268772 -71.91512,-5.130994 -5.311305,-2.993313 -7.354523,-11.253454 -8.704774,-20.321168 z" />
      <path
         style="fill:#d8b495;fill-opacity:1;stroke:none;stroke-linecap:butt;stroke-linejoin:round"
         id="path8"
         d="m -74.823591,6.75561 c 0.478286,4.910986 0.417892,10.789278 1.416246,16.270481 2.830334,15.540985 14.419874,27.454456 21.805484,40.339092 14.454915,-26.908407 6.909643,-52.742601 -23.221464,-56.61031 z" />
      <path
         style="fill:#d8b495;fill-opacity:1;stroke:none;stroke-linecap:butt;stroke-linejoin:round"
         id="path10"
         d="M 89.047689,-38.39636 C 83.018787,-17.510718 75.00757,-2.668677 70.86342,1.50415 67.164718,5.228787 60.610812,3.341484 49.601774,0.900989 c 4.151467,20.174035 22.1636,29.036594 38.676755,29.443083 0.65875,-6.889276 -0.215298,-13.645555 -2.227851,-18.998386 6.047105,-14.061759 10.72556,-27.646881 14.154282,-41.686998 -3.765845,-2.122138 -7.49006,-4.748451 -11.15677,-8.05541 z" />
      <path
         style="fill:#9b9b9b;fill-opacity:1;stroke:none;stroke-linecap:butt;stroke-linejoin:round"
         id="path12"
         d="m -27.750061,-5.373401 c 2.801095,38.275827 67.68809,41.114885 71.91512,5.122538 -6.838422,-1.366419 -15.118148,-2.670473 -25.182754,-3.08724 -26.741911,-1.107202 -40.695533,1.188814 -46.55026,-1.92893 -0.06218,-0.033098 -0.120875,-0.071838 -0.18214,-0.106356 z" />
      <path
         style="fill:#d8b495;fill-opacity:1;stroke:none;stroke-linecap:butt;stroke-linejoin:round"
         id="path14"
         d="m -60.328811,-68.10818 v 0.0013 h -0.0013 l 0.0027,0.0027 3.144035,16.82437 -8.183448,0.306404 -0.004,-0.0054 c -3.999726,1.836101 -15.909553,-0.168378 -20.134036,3.527965 -4.499633,3.936779 -7.030444,12.654692 -11.53003,15.184947 -0.178314,0.100285 -0.344159,0.178166 -0.519519,0.272187 13.342581,17.048552 39.91659,14.556487 61.096965,6.290408 -0.239901,-1.611082 -0.466106,-3.238633 -0.676546,-4.875818 -1.904744,-14.818122 -13.875567,-33.702139 -22.497328,-37.398328 -0.255512,-0.109546 -0.48768,-0.151025 -0.697484,-0.130865 z" />
      <path
         style="fill:#b89b84;fill-opacity:1;stroke:none;stroke-linecap:butt;stroke-linejoin:round"
         id="path16"
         d="m -60.32747,-68.10416 c -3.145282,0.305968 -1.464373,14.34872 -4.364159,16.72119 -0.188659,0.154341 -0.415541,0.29029 -0.675234,0.409591 5.270816,2.248392 8.803599,4.589935 10.395452,3.626113 2.192474,-1.327471 -0.443159,-12.035211 -5.356074,-20.756936 z" />
      <path
         style="fill:#444444;fill-opacity:1;stroke:none;stroke-linecap:butt;stroke-linejoin:round"
         id="path18"
         d="m -82.5306,-34.6122 a 3.35,3.349644 0 0 1 -3.350007,3.349651 3.35,3.349644 0 0 1 -3.349994,-3.349652 3.35,3.349644 0 0 1 3.349993,-3.349639 3.35,3.349644 0 0 1 3.350006,3.349638 z" />
      <path
         style="fill:#ed9ca8;fill-opacity:1;stroke:none;stroke-linecap:butt;stroke-linejoin:round"
         id="path20"
         d="m -104.4258,-28.8167 c -0.66349,0.390697 -1.1416,0.804777 -1.32691,1.337387 -0.76663,2.203777 -0.50697,4.864669 0.31668,7.5375 2.41658,-3.905002 6.103957,-2.824975 6.258184,-4.195272 0.09556,-0.848991 -3.903584,-2.762471 -5.247954,-4.679615 z" />
      <path
         style="fill:none;stroke:#444444;stroke-width:4;stroke-linecap:butt;stroke-linejoin:round;stroke-opacity:1"
         id="path22"
         d="m 88.577349,-107.03786 c 0.444009,4.92785 10.592767,14.266912 5.906103,44.147906 -5.241926,33.421945 -17.998545,58.730324 -23.623531,64.394973 -6.304486,6.348638 -20.52458,-3.543758 -51.876895,-4.841843 -26.741911,-1.107202 -40.696269,1.187836 -46.551065,-1.929909 -6.408631,-3.412612 -8.154034,-14.348184 -9.563245,-25.307576 -1.904744,-14.818122 -13.876772,-33.702474 -22.498534,-37.399333 -4.088273,-1.752734 -1.968152,14.059548 -5.061683,16.59054 -3.093531,2.530757 -16.311017,-3.49e-4 -20.811004,3.936417 -4.499633,3.936786 -7.030645,12.654893 -11.5305,15.185148 -4.499635,2.530757 -8.098825,2.999288 -8.718045,4.780972 -2.24985,6.46755 4.21771,16.871002 8.436042,19.964392 4.218454,3.093202 16.31249,0.845084 19.968814,5.62546 3.655948,4.780369 2.210979,15.451473 3.935854,24.921923 4.491211,24.660087 31.049475,40.186198 27.842319,64.955964 -1.864014,9.820324 -6.748777,8.998301 -10.967297,14.060286 -4.218454,5.06159 -1.406994,9.84196 -1.406994,9.84196 h 17.716542 c 10.577089,-14.880027 17.086876,-38.196763 11.575255,-55.676394 33.345699,5.065776 66.243771,-1.440856 73.17338,1.833381 11.912466,30.005548 17.368142,16.789664 16.186463,30.106986 -0.946255,10.665462 -6.670192,9.122854 -11.672271,12.586287 -2.810121,1.94564 -6.797084,5.67595 -3.147319,11.15034 h 17.813491 c 12.695026,-8.07859 17.12118,-26.344469 13.787997,-38.897924 -2.421059,-9.115417 2.331177,-18.869344 6.716616,-27.827379 5.427087,-11.086223 5.322794,-24.554161 1.839686,-33.817312 10.443558,-24.285625 16.829532,-47.141335 19.684532,-73.39247 2.62286,-24.120804 -5.5936,-43.331045 -9.561034,-47.803765 -3.29354,-3.71315 -8.038392,-2.12415 -7.593781,2.81176 z" />
    </g>
  </svg>
</svg>
